<?xml version="1.0" standalone="no"?>
<!DOCTYPE svg PUBLIC "-//W3C//DTD SVG 20010904//EN"
 "http://www.w3.org/TR/2001/REC-SVG-20010904/DTD/svg10.dtd">
<svg version="1.0" xmlns="http://www.w3.org/2000/svg"
 width="2250.000000pt" height="2250.000000pt" viewBox="0 0 2250.000000 2250.000000"
 preserveAspectRatio="xMidYMid meet">
<metadata>
Created by potrace 1.14, written by Peter Selinger 2001-2017
</metadata>
<g transform="translate(0.000000,2250.000000) scale(0.100000,-0.100000)"
fill="#000000" stroke="none">
<path d="M10449 21246 c-2 -2 -69 -7 -149 -11 -80 -3 -163 -8 -185 -9 -160
-13 -214 -17 -245 -21 -19 -2 -57 -7 -85 -9 -174 -19 -207 -23 -245 -30 -14
-3 -47 -8 -75 -11 -95 -11 -105 -12 -240 -36 -33 -6 -73 -13 -90 -15 -24 -4
-94 -18 -150 -30 -5 -1 -37 -7 -70 -13 -75 -14 -88 -17 -150 -31 -27 -6 -60
-14 -73 -16 -57 -11 -211 -50 -362 -90 -513 -139 -990 -311 -1490 -536 -164
-74 -487 -238 -675 -343 -344 -192 -756 -459 -1071 -696 -118 -88 -373 -289
-411 -323 -6 -6 -33 -29 -59 -51 -202 -168 -642 -590 -835 -800 -120 -132
-206 -230 -290 -330 -46 -55 -88 -105 -94 -111 -26 -27 -275 -354 -360 -471
-76 -106 -299 -437 -342 -508 -226 -373 -328 -556 -470 -845 -117 -237 -121
-245 -203 -435 -132 -305 -252 -632 -374 -1020 -21 -69 -120 -432 -141 -520
-9 -37 -8 -36 -39 -172 -25 -111 -75 -360 -80 -398 -2 -11 -6 -33 -9 -50 -3
-16 -9 -48 -12 -70 -3 -22 -10 -65 -15 -95 -5 -30 -16 -111 -25 -180 -9 -69
-18 -141 -20 -160 -2 -19 -7 -62 -10 -95 -3 -33 -8 -76 -10 -95 -10 -81 -19
-194 -32 -420 -15 -269 -8 -1017 12 -1200 2 -19 6 -71 10 -115 6 -83 10 -131
21 -225 3 -30 7 -66 9 -80 1 -14 5 -47 9 -75 4 -27 8 -63 10 -80 6 -43 17
-126 22 -155 33 -205 47 -286 59 -345 8 -38 16 -81 19 -95 3 -20 23 -115 41
-200 126 -592 373 -1326 640 -1905 74 -160 188 -391 207 -418 11 -15 17 -27
15 -27 -8 0 143 -272 246 -445 33 -55 65 -109 71 -120 62 -110 322 -494 460
-680 106 -142 353 -456 403 -510 10 -11 45 -52 78 -90 33 -39 64 -75 70 -81
206 -228 530 -556 690 -699 122 -110 195 -183 300 -300 96 -106 423 -437 540
-545 118 -110 181 -165 315 -279 41 -35 99 -84 129 -110 30 -25 64 -53 76 -61
11 -8 52 -40 91 -71 85 -68 239 -184 359 -270 196 -140 546 -369 565 -369 4 0
10 -3 12 -7 3 -8 106 -73 115 -73 3 0 17 -8 31 -18 15 -11 54 -34 87 -52 33
-18 119 -65 190 -104 127 -70 395 -204 525 -264 36 -17 96 -44 134 -61 381
-175 923 -367 1386 -492 219 -59 547 -135 665 -154 17 -3 41 -8 55 -10 14 -3
36 -8 50 -10 35 -7 151 -27 177 -30 12 -2 34 -6 50 -9 33 -7 67 -12 143 -21
30 -4 64 -9 74 -11 11 -2 44 -6 74 -9 30 -3 67 -7 81 -9 14 -3 57 -7 94 -11
37 -3 76 -8 85 -10 10 -1 62 -6 117 -10 55 -4 116 -9 135 -10 185 -16 339 -20
730 -20 461 0 579 4 880 30 36 3 90 8 120 11 30 2 71 7 90 9 19 3 62 8 95 11
33 3 67 7 75 9 8 1 40 6 70 10 30 3 66 8 80 10 14 3 59 9 100 15 41 5 98 14
125 20 28 5 64 11 80 14 17 2 91 16 165 31 74 15 146 29 160 32 13 2 63 13
110 24 47 11 92 22 100 24 8 2 56 13 105 25 50 12 97 23 105 25 44 10 392 112
500 147 165 53 547 191 605 217 11 5 90 39 175 74 581 243 1172 569 1706 939
97 67 257 184 304 221 9 7 54 41 100 77 47 35 114 88 150 118 36 29 74 61 85
70 270 215 702 628 980 937 50 55 92 102 95 105 3 3 28 32 55 65 28 33 55 65
61 70 39 35 451 568 511 661 7 10 32 46 55 79 114 160 468 728 468 750 0 2 14
28 31 56 17 29 77 143 134 253 168 327 321 675 443 1006 144 391 199 571 316
1020 23 91 88 387 101 460 3 19 12 67 20 105 13 66 40 226 51 305 2 19 7 51
10 70 6 36 10 61 19 145 4 28 8 61 10 75 3 23 13 121 20 195 2 17 6 71 10 120
4 50 9 97 10 106 26 139 26 1260 0 1494 -2 22 -7 78 -10 125 -3 47 -8 101 -10
120 -2 19 -7 60 -10 90 -3 30 -8 71 -10 90 -2 19 -7 55 -10 80 -10 88 -42 307
-50 350 -3 13 -7 42 -11 65 -3 22 -18 105 -34 185 -16 80 -31 156 -34 170 -2
14 -10 48 -16 75 -6 28 -14 61 -16 75 -10 50 -66 277 -86 344 -11 38 -22 78
-24 90 -10 53 -143 475 -200 636 -267 749 -624 1457 -1069 2121 -146 218 -472
661 -515 699 -3 3 -25 30 -50 60 -40 50 -121 145 -217 255 -169 193 -516 546
-708 720 -136 123 -173 160 -305 305 -129 143 -448 462 -595 595 -230 210
-590 506 -784 645 -34 25 -81 59 -104 76 -88 65 -388 265 -527 351 -656 406
-1332 722 -2060 961 -175 58 -572 173 -649 188 -7 1 -50 12 -95 23 -117 28
-207 49 -241 55 -16 3 -41 8 -55 11 -14 3 -47 10 -75 15 -27 5 -113 21 -190
35 -77 14 -158 28 -180 31 -22 2 -83 11 -135 19 -98 15 -150 21 -235 30 -27 3
-63 7 -80 10 -27 4 -111 12 -205 20 -19 2 -82 6 -140 10 -58 4 -127 9 -155 11
-57 6 -881 15 -886 10z m836 -230 c44 -3 121 -8 170 -11 146 -10 283 -22 335
-30 14 -2 52 -6 85 -10 123 -12 228 -26 380 -51 50 -8 104 -17 120 -20 553
-88 1209 -269 1800 -497 372 -143 851 -370 1205 -572 47 -27 94 -53 105 -59
11 -6 82 -49 158 -96 76 -47 146 -90 155 -95 154 -92 772 -532 772 -550 0 -2
-39 19 -87 47 -49 27 -113 64 -143 80 -30 17 -91 50 -135 75 -78 43 -470 238
-570 283 -91 41 -348 151 -415 176 -36 14 -74 29 -85 34 -11 5 -72 27 -135 50
-63 23 -124 46 -135 51 -36 16 -454 149 -515 164 -8 2 -62 17 -120 34 -104 30
-447 115 -505 125 -16 3 -39 8 -50 10 -62 14 -234 48 -257 51 -15 2 -51 8 -80
14 -89 18 -348 56 -518 76 -157 18 -196 22 -300 30 -47 4 -101 9 -120 10 -316
27 -1086 27 -1420 0 -25 -2 -81 -7 -125 -10 -80 -7 -114 -10 -190 -19 -22 -3
-67 -8 -100 -11 -33 -3 -71 -8 -85 -10 -14 -2 -45 -7 -70 -10 -45 -5 -111 -15
-140 -20 -8 -1 -35 -6 -60 -10 -38 -5 -270 -46 -335 -59 -11 -2 -36 -6 -55
-10 -19 -3 -44 -8 -55 -10 -11 -3 -65 -14 -120 -26 -273 -59 -694 -175 -980
-272 -150 -50 -452 -160 -490 -178 -11 -5 -76 -32 -145 -61 -68 -28 -143 -59
-165 -69 -235 -107 -320 -147 -505 -242 -271 -139 -405 -214 -695 -391 -56
-35 -372 -243 -450 -297 -168 -117 -597 -446 -625 -479 -3 -3 -25 -22 -50 -42
-47 -38 -52 -43 -160 -137 -189 -167 -493 -462 -652 -633 -314 -339 -518 -586
-774 -939 -872 -1198 -1454 -2597 -1693 -4065 -14 -86 -14 -86 -45 -325 -28
-223 -31 -251 -51 -490 -28 -337 -28 -1081 0 -1410 1 -19 6 -75 9 -125 4 -49
9 -106 11 -125 2 -19 6 -62 10 -95 3 -33 8 -71 10 -85 2 -14 6 -46 10 -72 11
-100 15 -134 19 -153 4 -21 12 -74 21 -137 2 -21 12 -77 21 -125 8 -49 18
-101 20 -118 15 -88 77 -379 109 -510 62 -252 175 -651 195 -687 6 -10 10 -24
10 -31 0 -14 81 -249 131 -377 72 -189 131 -338 144 -365 8 -16 37 -84 66
-150 115 -269 418 -856 512 -994 68 -100 -2 -18 -121 142 -473 633 -829 1251
-1144 1987 -27 63 -51 120 -52 125 -2 6 -9 24 -15 40 -63 152 -196 529 -256
730 -51 166 -145 516 -159 585 -2 14 -12 57 -20 95 -69 308 -138 726 -170
1030 -12 113 -16 153 -21 220 -3 39 -7 93 -10 122 -25 292 -25 1022 0 1313 2
25 6 81 10 125 8 103 13 159 20 215 3 25 7 65 10 90 12 105 16 136 20 155 2
11 7 43 10 70 7 52 60 378 70 430 34 173 85 406 90 415 2 4 7 22 10 40 20 116
191 707 240 830 7 19 35 94 60 165 50 139 152 396 191 483 13 29 36 80 50 115
39 92 243 507 306 622 94 170 109 197 166 295 52 90 76 129 157 254 19 30 35
57 35 59 0 11 272 404 379 547 98 132 312 404 330 420 4 3 46 52 96 110 49 58
110 128 136 155 25 28 70 76 100 109 133 144 433 439 609 598 102 92 364 312
455 381 5 4 48 37 95 74 158 122 707 503 726 503 2 0 34 20 71 43 37 24 75 47
83 51 8 3 35 20 60 36 25 16 65 40 90 53 25 14 104 57 175 97 317 175 764 382
1130 523 332 127 857 292 1087 341 13 3 73 17 133 32 128 30 106 25 265 57 69
14 168 33 220 42 52 9 106 18 120 21 14 2 70 11 125 19 55 8 116 18 135 20 19
3 60 8 90 11 30 2 66 6 80 9 37 6 166 19 305 30 44 4 96 9 115 10 19 2 107 7
195 10 88 4 161 8 163 10 5 4 696 -3 777 -9z m830 -2000 c148 -9 232 -15 310
-22 33 -4 74 -7 90 -9 41 -3 154 -16 185 -20 14 -2 50 -6 80 -10 30 -3 66 -8
80 -10 14 -3 39 -7 55 -9 17 -3 75 -12 130 -22 55 -9 111 -18 125 -20 20 -2
193 -38 381 -79 43 -9 383 -98 444 -116 304 -90 813 -278 1049 -388 49 -23 90
-41 92 -41 2 0 84 -40 182 -88 381 -190 653 -350 1004 -588 102 -69 155 -115
270 -233 178 -183 272 -286 402 -441 39 -47 73 -87 76 -90 12 -11 191 -241
246 -315 32 -44 69 -94 81 -110 29 -38 283 -418 311 -465 65 -108 118 -197
128 -215 6 -11 43 -77 82 -147 97 -172 265 -517 351 -720 39 -92 71 -170 71
-173 0 -4 7 -21 15 -38 28 -62 95 -242 95 -257 0 -9 4 -20 9 -25 26 -29 216
-680 255 -875 3 -14 7 -34 10 -45 9 -37 64 -310 70 -350 4 -22 9 -51 11 -65
32 -188 64 -440 80 -632 4 -42 8 -89 10 -105 17 -142 24 -717 12 -983 -7 -147
-10 -189 -22 -320 -12 -142 -16 -177 -20 -205 -2 -16 -7 -56 -10 -88 -4 -32
-8 -66 -10 -75 -2 -10 -6 -45 -10 -77 -4 -33 -9 -69 -11 -80 -3 -11 -13 -72
-24 -136 -25 -154 -75 -400 -107 -524 -14 -55 -27 -110 -29 -121 -2 -12 -26
-100 -53 -195 -237 -834 -606 -1623 -1097 -2346 -228 -337 -431 -593 -734
-928 -241 -267 -749 -737 -985 -910 -22 -17 -42 -32 -45 -35 -3 -4 -23 -19
-45 -35 -22 -17 -42 -32 -45 -35 -20 -22 -542 -380 -554 -380 -3 0 -31 -17
-63 -38 -32 -21 -65 -42 -73 -45 -8 -4 -31 -17 -50 -29 -240 -148 -656 -357
-994 -500 -340 -143 -860 -316 -1154 -383 -9 -2 -75 -18 -147 -35 -71 -17
-143 -33 -160 -36 -16 -3 -73 -14 -125 -24 -52 -11 -108 -22 -125 -24 -16 -3
-70 -12 -120 -20 -49 -8 -112 -17 -140 -21 -27 -3 -61 -8 -75 -10 -73 -11
-235 -29 -370 -40 -41 -3 -93 -8 -115 -10 -264 -29 -931 -24 -1290 10 -33 3
-84 8 -114 10 -47 4 -205 23 -336 41 -22 3 -80 12 -130 20 -49 8 -103 17 -120
20 -61 10 -241 45 -285 55 -25 6 -52 12 -60 14 -210 44 -704 181 -858 240 -20
7 -95 35 -167 60 -71 26 -149 56 -172 66 -23 11 -45 19 -49 19 -19 0 -368 156
-559 251 -233 115 -324 163 -473 250 -51 30 -100 59 -110 64 -80 44 -348 218
-473 307 -85 60 -165 116 -179 126 -47 31 -295 226 -385 301 -201 168 -323
279 -515 471 -123 122 -163 170 -248 297 -56 83 -102 154 -102 158 0 3 -5 11
-10 18 -92 110 -424 723 -575 1063 -208 467 -404 1048 -500 1484 -29 130 -67
313 -71 340 -3 19 -11 67 -19 105 -8 39 -19 108 -25 155 -6 46 -13 87 -15 90
-1 3 -6 34 -10 70 -3 36 -8 76 -10 90 -1 14 -6 54 -10 90 -4 36 -9 72 -10 81
-2 9 -6 59 -10 110 -4 52 -8 110 -10 129 -24 257 -24 792 0 1090 12 142 16
188 20 225 2 22 7 67 10 100 9 81 14 123 20 165 3 19 8 53 11 75 5 43 21 151
30 200 3 17 7 39 8 50 2 11 6 34 9 50 4 17 9 44 12 60 11 70 48 247 71 345 14
58 27 112 29 120 2 8 8 35 15 60 7 25 13 52 15 61 2 8 24 89 50 180 252 885
655 1728 1194 2494 78 112 271 369 318 425 11 14 60 72 108 130 249 299 586
646 870 895 38 33 73 65 79 70 12 11 122 103 146 122 8 7 53 43 100 81 273
221 680 501 980 675 280 163 686 369 900 457 30 13 59 27 64 32 6 4 16 8 24 8
7 0 37 11 65 24 111 50 640 241 727 262 8 2 71 19 140 39 245 70 704 176 860
198 19 3 91 14 160 25 69 12 150 23 180 27 30 3 66 8 80 10 41 7 140 17 295
30 44 3 98 8 120 10 22 2 110 7 195 10 85 4 156 8 157 9 6 5 445 -2 558 -8z
m5712 -2741 c221 -246 496 -600 683 -880 44 -66 84 -124 88 -130 13 -17 166
-266 206 -335 20 -36 41 -72 46 -80 77 -129 277 -525 365 -725 142 -322 254
-624 355 -960 44 -145 133 -480 146 -548 2 -12 7 -35 11 -52 4 -16 7 -32 8
-35 0 -3 4 -21 8 -40 4 -19 9 -46 12 -60 3 -14 8 -41 11 -60 3 -19 10 -55 16
-80 5 -25 11 -56 13 -70 2 -14 11 -68 19 -120 8 -52 18 -115 21 -140 3 -25 8
-56 10 -70 2 -14 6 -50 10 -80 4 -30 8 -66 10 -80 2 -14 6 -56 10 -95 3 -38 8
-94 11 -124 16 -149 28 -434 28 -686 0 -215 -10 -539 -18 -605 -2 -14 -7 -65
-10 -115 -4 -49 -9 -103 -10 -120 -8 -75 -18 -171 -21 -186 -2 -8 -6 -40 -9
-70 -3 -30 -8 -65 -10 -79 -3 -14 -7 -41 -10 -60 -8 -52 -44 -271 -51 -305
-56 -285 -127 -582 -186 -780 -77 -254 -212 -646 -263 -760 -8 -16 -36 -84
-64 -150 -95 -227 -276 -597 -381 -779 -28 -49 -51 -90 -51 -92 0 -7 -175
-292 -248 -404 -106 -163 -364 -524 -392 -550 -3 -3 -39 -48 -80 -100 -301
-380 -708 -799 -1105 -1136 -344 -293 -812 -625 -1165 -827 -273 -156 -566
-308 -745 -386 -55 -24 -127 -56 -160 -71 -249 -112 -682 -267 -995 -354 -199
-56 -528 -136 -565 -137 -2 0 -19 -4 -36 -9 -18 -5 -50 -12 -73 -16 -22 -3
-43 -7 -46 -9 -3 -2 -26 -6 -50 -10 -25 -3 -67 -10 -95 -15 -27 -5 -68 -12
-90 -15 -22 -3 -51 -7 -65 -10 -62 -9 -178 -26 -210 -29 -19 -2 -60 -7 -90
-10 -279 -33 -583 -50 -915 -50 -215 0 -461 8 -585 18 -25 2 -83 7 -130 10
-47 4 -101 9 -120 11 -19 2 -60 7 -90 10 -30 3 -71 8 -90 10 -19 3 -52 7 -74
10 -71 8 -120 16 -271 41 -82 14 -163 28 -180 31 -16 2 -61 11 -100 20 -38 8
-81 17 -95 19 -13 3 -63 14 -110 25 -47 11 -94 22 -104 24 -10 3 -55 14 -100
26 -45 11 -88 22 -96 24 -146 30 -901 285 -934 316 -6 5 -16 9 -23 9 -13 0
-92 34 -338 146 -286 129 -615 307 -889 478 -70 45 -142 89 -160 100 -42 25
-349 240 -407 285 -26 20 -59 45 -75 56 -35 25 -222 173 -249 196 -11 9 -56
48 -100 85 -195 165 -454 408 -389 363 443 -298 615 -404 929 -571 104 -56
368 -187 445 -221 19 -8 67 -30 105 -47 90 -41 467 -189 570 -225 44 -15 89
-31 100 -36 78 -33 596 -182 745 -214 8 -2 38 -9 65 -15 28 -6 61 -14 75 -17
14 -3 30 -6 35 -7 49 -11 74 -16 95 -20 28 -5 122 -24 160 -31 46 -9 121 -22
240 -40 14 -2 43 -6 65 -9 22 -4 57 -9 78 -11 20 -3 52 -7 70 -9 17 -2 57 -7
87 -10 30 -4 71 -9 90 -11 19 -3 69 -7 110 -10 41 -3 100 -8 130 -11 364 -29
1010 -24 1370 11 36 4 83 8 105 10 74 7 182 20 245 29 19 3 55 8 80 11 25 3
68 10 95 15 46 8 93 16 155 25 27 4 72 12 105 19 11 2 79 16 150 30 474 96
996 256 1470 449 251 103 663 301 873 421 35 20 66 36 69 36 2 0 28 15 56 33
29 18 104 64 167 102 784 468 1574 1161 2170 1905 19 24 40 48 45 54 6 6 56
72 112 146 460 614 821 1256 1099 1955 77 196 147 386 159 435 1 3 16 50 34
105 18 55 34 107 36 115 2 8 15 56 30 105 77 257 187 750 220 985 3 25 12 88
20 140 8 52 16 115 19 140 10 83 17 145 21 175 2 17 7 64 10 105 3 41 8 98 10
125 26 292 26 1007 1 1245 -2 19 -7 75 -11 124 -4 49 -8 98 -10 110 -2 11 -6
50 -9 86 -4 36 -8 75 -10 87 -3 12 -7 48 -11 80 -3 32 -8 65 -10 73 -2 8 -6
33 -9 55 -2 22 -10 72 -16 110 -7 39 -14 79 -15 91 -2 11 -8 45 -14 75 -6 30
-13 63 -15 74 -17 98 -18 102 -51 250 -28 124 -119 471 -134 515 -5 14 -22 66
-36 115 -29 96 -149 446 -165 480 -5 11 -32 76 -59 145 -140 355 -388 857
-574 1160 -22 36 -48 79 -58 97 -10 18 -62 99 -116 180 -54 81 -100 152 -102
158 -2 5 -29 43 -59 85 l-54 75 89 -90 c48 -50 120 -126 160 -170z"/>
<path d="M6997 13104 c-1 -2 -34 -5 -73 -8 -472 -38 -955 -299 -1267 -686
-136 -169 -290 -464 -332 -637 -3 -10 -11 -42 -19 -71 -9 -30 -18 -72 -21 -95
-4 -23 -8 -44 -10 -47 -18 -30 -26 -396 -12 -530 40 -367 220 -757 477 -1034
279 -299 658 -510 1030 -570 19 -3 46 -8 59 -11 43 -8 193 -19 276 -19 107 0
310 18 344 30 8 2 30 7 49 10 20 3 81 19 136 36 556 165 1006 586 1210 1131
123 328 147 695 71 1057 -93 439 -387 869 -772 1128 -175 117 -439 234 -605
268 -13 2 -32 6 -43 9 -51 11 -120 22 -195 31 -54 6 -298 13 -303 8z m348
-153 c99 -15 122 -20 190 -37 487 -125 901 -468 1119 -926 91 -189 134 -341
161 -568 8 -67 9 -281 1 -335 -3 -22 -8 -58 -11 -80 -4 -22 -7 -49 -9 -60 -16
-111 -77 -299 -142 -434 -255 -533 -764 -898 -1351 -968 -76 -9 -300 -9 -383
0 -385 41 -757 220 -1030 496 -247 249 -426 589 -475 906 -3 22 -9 58 -13 80
-9 54 -8 408 2 470 4 28 12 70 18 95 5 25 12 56 14 70 12 61 90 272 134 359
263 521 765 870 1352 940 88 10 339 6 423 -8z"/>
<path d="M6046 12068 c-14 -20 -16 -98 -16 -649 0 -616 0 -626 20 -644 19 -17
49 -19 493 -19 l472 -1 0 -115 0 -115 -97 0 c-64 -1 -101 -5 -112 -14 -23 -19
-21 -78 3 -91 12 -6 118 -10 275 -10 252 0 255 0 270 22 21 29 20 41 -3 69
-17 21 -27 23 -112 25 -52 1 -96 2 -99 3 -5 1 -6 202 -1 222 0 3 227 5 502 5
l502 0 18 23 c18 22 19 54 19 645 0 546 -2 624 -16 644 l-15 22 -1044 0 -1044
0 -15 -22z m2014 -105 c4 -10 5 -1057 1 -1084 -1 -4 -431 -7 -956 -7 l-955 0
0 64 c-1 35 -1 201 -1 369 0 168 0 387 1 488 l0 182 953 0 c744 0 953 -2 957
-12z"/>
<path d="M6979 11629 c-19 -19 -20 -29 -17 -229 3 -214 6 -228 44 -234 28 -5
58 14 184 117 106 86 115 96 113 126 0 18 -3 34 -5 35 -159 129 -263 206 -278
206 -11 0 -29 -9 -41 -21z m161 -209 c14 -14 13 -18 -19 -42 -18 -16 -37 -28
-40 -28 -5 0 -6 69 -2 114 1 8 18 -4 61 -44z"/>
<path d="M12115 11995 c-239 -53 -382 -200 -446 -459 -28 -110 -35 -390 -14
-526 27 -170 71 -274 154 -359 61 -63 99 -89 177 -119 74 -30 106 -34 249 -38
102 -2 145 1 199 16 265 71 417 272 454 600 9 78 8 323 -2 375 -3 17 -10 53
-15 81 -13 69 -45 156 -75 207 -61 105 -191 193 -326 221 -85 17 -279 18 -355
1z m262 -250 c78 -33 139 -117 168 -233 22 -87 27 -136 27 -262 0 -278 -55
-425 -184 -491 -21 -11 -65 -21 -99 -24 -150 -11 -262 91 -303 277 -34 154
-25 448 19 568 33 93 103 160 188 181 46 11 139 3 184 -16z"/>
<path d="M16557 11994 c-91 -22 -167 -64 -232 -129 -79 -78 -106 -145 -111
-270 -9 -234 96 -371 340 -446 56 -17 137 -42 181 -56 136 -42 175 -81 175
-176 0 -69 -9 -94 -50 -134 -41 -40 -106 -58 -200 -56 -91 2 -153 21 -155 49
-4 48 -18 111 -30 134 -12 24 -17 25 -114 25 -98 0 -101 0 -110 -25 -27 -72
-41 -144 -46 -238 -3 -51 -2 -54 34 -76 58 -36 133 -62 266 -92 67 -15 300
-13 361 2 161 42 289 141 346 267 39 86 47 221 20 327 -17 68 -32 96 -74 141
-75 82 -141 114 -378 184 -197 58 -240 94 -240 202 0 103 57 147 190 147 114
0 140 -7 140 -40 0 -34 20 -116 33 -131 6 -9 42 -13 113 -13 l103 0 20 64 c19
61 28 118 35 213 l3 42 -62 25 c-126 50 -221 69 -365 72 -90 1 -154 -2 -193
-12z"/>
<path d="M9705 11990 c-4 -7 -16 -85 -20 -133 -3 -34 24 -65 81 -90 l39 -18 0
-497 0 -497 -49 -28 c-28 -15 -54 -33 -59 -40 -4 -6 -5 -43 -2 -82 4 -38 7
-76 8 -82 0 -7 3 -13 6 -14 31 -5 414 -2 418 3 6 11 10 33 18 105 l6 62 -41
30 c-23 17 -50 33 -59 36 -17 5 -18 29 -18 318 0 270 -5 447 -17 550 -2 17 1
27 10 27 7 0 17 -23 24 -57 13 -62 57 -197 115 -358 20 -55 58 -161 85 -235
26 -74 67 -187 90 -250 23 -63 50 -142 62 -175 l20 -60 144 0 144 0 9 25 c44
113 335 991 351 1058 12 53 37 69 33 21 -12 -162 -16 -291 -18 -544 -1 -165
-3 -303 -4 -307 0 -4 -11 -10 -23 -14 -13 -4 -38 -18 -56 -32 -33 -25 -34 -28
-28 -78 3 -29 8 -69 12 -91 l6 -38 244 0 c134 0 244 2 245 5 0 3 2 14 4 25 2
11 7 50 10 86 6 61 4 69 -16 88 -13 12 -38 26 -56 33 -18 7 -34 14 -34 18 -1
3 -2 226 -3 497 l-1 492 38 17 c52 24 89 60 83 82 -2 9 -8 44 -11 77 -4 33 -9
62 -11 65 -3 2 -111 5 -241 5 -203 0 -236 -2 -243 -15 -9 -17 -44 -114 -110
-310 -21 -63 -73 -214 -115 -335 -42 -121 -90 -257 -105 -302 -16 -45 -32
-107 -35 -138 -5 -34 -13 -59 -22 -62 -19 -7 -22 -3 -28 43 -4 21 -8 47 -11
56 -3 9 -7 25 -9 35 -3 19 -50 155 -65 188 -9 21 -24 64 -195 535 -59 162
-109 297 -111 299 -7 7 -485 7 -489 1z"/>
<path d="M12945 11980 c-2 -8 -7 -37 -10 -65 -3 -27 -8 -60 -11 -72 -5 -28 23
-59 80 -83 l41 -19 85 -258 c46 -142 85 -260 85 -263 1 -3 4 -12 8 -20 3 -8
57 -170 119 -360 l113 -345 148 -1 147 -1 135 411 c74 226 165 505 202 619
l68 208 55 25 c87 40 93 48 84 119 -3 33 -8 67 -9 75 -2 8 -4 22 -4 30 -1 13
-34 15 -243 14 -134 -1 -246 -2 -249 -3 -3 0 -7 -16 -8 -33 -1 -18 -5 -58 -9
-88 -7 -51 -6 -57 18 -78 14 -12 40 -28 58 -34 21 -8 31 -17 27 -28 -2 -8 -40
-135 -84 -283 -95 -314 -128 -429 -136 -477 -16 -84 -21 -128 -20 -148 2 -29
-24 -37 -30 -9 -2 12 -9 57 -15 100 -6 42 -60 247 -120 455 l-108 377 36 17
c66 33 74 46 68 108 -11 96 -13 110 -20 118 -4 4 -117 7 -252 7 -209 0 -245
-2 -249 -15z"/>
<path d="M14375 11990 c-2 -3 -6 -36 -10 -75 -4 -38 -9 -78 -11 -88 -2 -12 12
-27 43 -48 26 -16 53 -29 60 -29 11 0 13 -95 13 -499 l0 -500 -22 -7 c-13 -4
-40 -18 -61 -31 -31 -20 -36 -28 -33 -51 3 -15 8 -54 11 -87 4 -33 9 -62 11
-64 6 -7 504 -8 505 -1 22 182 23 180 -43 218 l-57 34 1 490 1 489 41 21 c71
36 77 44 71 107 -10 95 -15 121 -28 122 -43 4 -489 3 -492 -1z"/>
<path d="M15065 11990 c-5 -9 -14 -65 -20 -122 -5 -55 -4 -58 27 -81 18 -14
43 -28 55 -31 12 -4 24 -15 27 -24 2 -9 4 -232 4 -494 l-1 -477 -56 -33 c-54
-32 -56 -35 -55 -74 1 -23 4 -66 8 -95 l7 -54 492 0 c271 0 497 3 502 7 11 6
13 354 2 364 -3 3 -38 10 -78 15 -88 11 -97 5 -134 -87 l-24 -59 -175 -3 -176
-2 0 205 0 205 43 1 c23 0 89 0 147 0 112 0 108 2 141 -59 18 -31 31 -33 126
-17 l32 6 0 190 c-1 135 -4 192 -12 194 -7 3 -39 6 -72 7 l-59 3 -24 -42 -23
-43 -150 0 -149 0 0 185 0 185 168 0 169 0 12 -42 c7 -24 24 -60 37 -81 l25
-38 62 7 c34 4 69 8 77 10 8 1 17 3 20 3 3 1 5 85 5 188 l0 187 -488 1 c-269
0 -490 -2 -492 -5z"/>
</g>
</svg>
